HIERARCHY
ROOT Hips
{
	OFFSET 0.000000 0.000000 0.000000
	CHANNELS 6 Xposition Yposition Zposition Zrotation Yrotation Xrotation 
	JOINT LHipJoint
	{
		OFFSET 0.000000 0.000000 0.000000
		CHANNELS 3 Zrotation Yrotation Xrotation
		JOINT LeftUpLeg
		{
			OFFSET 1.363060 -1.794630 0.839290
			CHANNELS 3 Zrotation Yrotation Xrotation
			JOINT LeftLeg
			{
				OFFSET 2.448110 -6.726130 0.000000
				CHANNELS 3 Zrotation Yrotation Xrotation
				JOINT LeftFoot
				{
					OFFSET 2.562200 -7.039590 0.000000
					CHANNELS 3 Zrotation Yrotation Xrotation
					JOINT LeftToeBase
					{
						OFFSET 0.157640 -0.433110 2.322550
						CHANNELS 3 Zrotation Yrotation Xrotation
						End Site
						{
							OFFSET 0.000000 0.000000 0.000000
						}
					}
				}
			}
		}
	}
	JOINT RHipJoint
	{
		OFFSET 0.000000 0.000000 0.000000
		CHANNELS 3 Zrotation Yrotation Xrotation
		JOINT RightUpLeg
		{
			OFFSET -1.305520 -1.794630 0.839290
			CHANNELS 3 Zrotation Yrotation Xrotation
			JOINT RightLeg
			{
				OFFSET -2.542530 -6.985550 0.000000
				CHANNELS 3 Zrotation Yrotation Xrotation
				JOINT RightFoot
				{
					OFFSET -2.568260 -7.056230 0.000000
					CHANNELS 3 Zrotation Yrotation Xrotation
					JOINT RightToeBase
					{
						OFFSET -0.164730 -0.452590 2.363150
						CHANNELS 3 Zrotation Yrotation Xrotation
						End Site
						{
							OFFSET 0.000000 0.000000 0.000000
						}
					}
				}
			}
		}
	}
	JOINT LowerBack
	{
		OFFSET 0.000000 0.000000 0.000000
		CHANNELS 3 Zrotation Yrotation Xrotation
		JOINT Spine
		{
			OFFSET 0.028270 2.035590 -0.193380
			CHANNELS 3 Zrotation Yrotation Xrotation
			JOINT Spine1
			{
				OFFSET 0.056720 2.048850 -0.042750
				CHANNELS 3 Zrotation Yrotation Xrotation
				JOINT Neck
				{
					OFFSET 0.000000 0.000000 0.000000
					CHANNELS 3 Zrotation Yrotation Xrotation
					JOINT Neck1
					{
						OFFSET -0.054170 1.746240 0.172020
						CHANNELS 3 Zrotation Yrotation Xrotation
						JOINT Head
						{
							OFFSET 0.104070 1.761360 -0.123970
							CHANNELS 3 Zrotation Yrotation Xrotation
							End Site
							{
								OFFSET 0.000000 0.000000 0.000000
							}
						}
					}
				}
				JOINT LeftShoulder
				{
					OFFSET 0.000000 0.000000 0.000000
					CHANNELS 3 Zrotation Yrotation Xrotation
					JOINT LeftArm
					{
						OFFSET 3.362410 1.200890 -0.311210
						CHANNELS 3 Zrotation Yrotation Xrotation
						JOINT LeftForeArm
						{
							OFFSET 4.983000 -0.000000 -0.000000
							CHANNELS 3 Zrotation Yrotation Xrotation
							JOINT LeftHand
							{
								OFFSET 3.483560 -0.000000 -0.000000
								CHANNELS 3 Zrotation Yrotation Xrotation
								JOINT LeftFingerBase
								{
									OFFSET 0.000000 0.000000 0.000000
									CHANNELS 3 Zrotation Yrotation Xrotation
									JOINT LeftHandIndex1
									{
										OFFSET 0.715260 -0.000000 -0.000000
										CHANNELS 3 Zrotation Yrotation Xrotation
										End Site
										{
											OFFSET 0.000000 0.000000 0.000000
										}
									}
								}
								JOINT LThumb
								{
									OFFSET 0.000000 0.000000 0.000000
									CHANNELS 3 Zrotation Yrotation Xrotation
									End Site
									{
										OFFSET 0.000000 0.000000 0.000000
									}
								}
							}
						}
					}
				}
				JOINT RightShoulder
				{
					OFFSET 0.000000 0.000000 0.000000
					CHANNELS 3 Zrotation Yrotation Xrotation
					JOINT RightArm
					{
						OFFSET -3.136600 1.374050 -0.404650
						CHANNELS 3 Zrotation Yrotation Xrotation
						JOINT RightForeArm
						{
							OFFSET -5.241900 -0.000000 -0.000000
							CHANNELS 3 Zrotation Yrotation Xrotation
							JOINT RightHand
							{
								OFFSET -3.444170 -0.000000 -0.000000
								CHANNELS 3 Zrotation Yrotation Xrotation
								JOINT RightFingerBase
								{
									OFFSET 0.000000 0.000000 0.000000
									CHANNELS 3 Zrotation Yrotation Xrotation
									JOINT RightHandIndex1
									{
										OFFSET -0.622530 -0.000000 -0.000000
										CHANNELS 3 Zrotation Yrotation Xrotation
										End Site
										{
											OFFSET 0.000000 0.000000 0.000000
										}
									}
								}
								JOINT RThumb
								{
									OFFSET 0.000000 0.000000 0.000000
									CHANNELS 3 Zrotation Yrotation Xrotation
									End Site
									{
										OFFSET 0.000000 0.000000 0.000000
									}
								}
							}
						}
					}
				}
			}
		}
	}
}
MOTION
Frames: 10
Frame Time: 0.008333
0.670672 16.609445 0.799577 33.049066 79.657389 54.962228 -12.027764 2.268659 -3.962129 -1.803681 10.190728 -15.409055 -0.552179 2.840796 43.408149 1.198317 0.304125 20.728156 -0.476500 -0.000000 -68.311899 8.322551 1.473756 -1.128867 11.923320 1.361153 -48.893287 2.124493 -2.088241 33.649667 -1.629380 -4.260356 -11.499003 179.986200 -0.000000 -1.713900 6.997642 -1.708174 8.229299 0.614931 -1.588569 -1.350920 -6.322666 -1.663122 -0.294731 8.600863 6.994558 5.659474 -4.439322 -0.385943 3.194556 0.000000 0.000000 0.000000 -8.082333 -7.283756 1.162430 -64.698650 -38.391833 23.300156 -1.537948 -66.817689 -0.039251 7.165119 -5.508181 -0.386195 -0.209409 0.507151 -0.000000 0.000000 0.000000 0.000000 0.000000 0.000000 0.000000 18.708359 3.913442 2.395656 50.445655 6.222611 -13.156547 3.303368 13.250787 0.006922 -1.447804 5.443512 -0.074178 0.092535 -0.091408 -0.000000 0.000000 0.000000 0.000000 0.000000 0.000000 0.000000 
0.820051 16.602125 0.885119 31.386072 79.593224 53.023892 -12.029373 2.127309 -4.083315 -1.338713 10.135536 -16.135715 -0.418035 2.989810 45.723742 1.347003 1.546098 21.079445 0.027300 -0.000000 -63.699000 8.295119 1.461245 -1.370281 12.413896 1.449335 -48.172114 2.131634 -2.166893 34.932401 -1.701947 -4.191853 -13.152667 -179.794800 -0.000000 -3.118900 7.103074 -1.723816 8.633212 0.620732 -1.573400 -1.282950 -6.369801 -1.654367 -0.354914 9.091087 7.623763 5.965842 -4.466145 -0.387136 3.266281 0.000000 0.000000 0.000000 -7.940933 -7.480280 1.119387 -64.931428 -37.713059 21.943512 -1.608238 -64.904241 -0.043950 7.999705 -5.748349 -0.446867 -0.211483 0.495424 -0.000000 0.000000 0.000000 0.000000 0.000000 0.000000 0.000000 19.338010 4.254657 2.332995 50.188687 7.162701 -14.793698 3.232403 12.040312 0.005886 -2.050654 5.466087 -0.103795 0.091935 -0.092081 -0.000000 0.000000 0.000000 0.000000 0.000000 0.000000 0.000000 
0.968443 16.599413 0.973948 29.897671 79.488463 51.277352 -12.009128 1.981252 -4.196579 -0.991493 10.018265 -16.905507 -0.287321 3.130497 47.938992 1.508970 3.143342 21.177815 0.707600 0.000000 -59.267400 8.280534 1.442869 -1.581250 12.850439 1.550804 -47.295957 2.143103 -2.204589 35.841996 -1.796474 -4.236213 -14.695492 -179.586500 -0.000000 -4.045300 7.122371 -1.738748 8.993984 0.612297 -1.559388 -1.217416 -6.409021 -1.645806 -0.388515 9.618674 8.220127 6.268266 -4.475035 -0.387564 3.337285 0.000000 0.000000 0.000000 -7.753593 -7.644232 1.073956 -65.191737 -37.041749 20.622706 -1.677956 -62.770495 -0.048520 8.907787 -5.975938 -0.513946 -0.213655 0.481006 -0.000000 0.000000 0.000000 0.000000 0.000000 0.000000 0.000000 19.910178 4.576778 2.252818 50.086016 8.197697 -16.574802 3.140953 10.830417 0.004618 -2.786831 5.503897 -0.140513 0.091196 -0.093028 -0.000000 0.000000 0.000000 0.000000 0.000000 0.000000 0.000000 
1.116789 16.601127 1.066026 28.609440 79.337456 49.760877 -11.970451 1.833484 -4.295559 -0.768410 9.842563 -17.725270 -0.161011 3.259278 50.022475 1.682862 5.016630 21.032234 1.518000 0.000000 -55.150100 8.278083 1.417381 -1.754966 13.223633 1.673357 -46.306330 2.155103 -2.207820 36.407882 -1.903122 -4.368528 -16.062015 -179.391100 0.000000 -4.578500 7.057426 -1.749825 9.295480 0.589530 -1.545662 -1.155464 -6.442001 -1.636143 -0.387474 10.169247 8.734021 6.547042 -4.470227 -0.387400 3.402284 0.000000 0.000000 0.000000 -7.540353 -7.764634 1.030456 -65.450224 -36.398969 19.358259 -1.747371 -60.428816 -0.052592 9.856477 -6.180172 -0.584526 -0.215641 0.463960 -0.000000 0.000000 0.000000 0.000000 0.000000 0.000000 0.000000 20.426157 4.834938 2.155533 50.132593 9.357549 -18.365605 3.032840 9.663174 0.003127 -3.664115 5.572507 -0.185732 0.090441 -0.094187 -0.000000 0.000000 0.000000 0.000000 0.000000 0.000000 0.000000 
1.265720 16.607248 1.161065 27.510921 79.137507 48.472810 -11.917286 1.686758 -4.374612 -0.663855 9.614669 -18.597947 -0.040880 3.373285 51.945540 1.865637 7.063590 20.661052 2.396800 -0.000000 -51.464000 8.285703 1.383853 -1.886475 13.532080 1.826269 -45.239807 2.165163 -2.182118 36.663733 -2.011548 -4.557695 -17.207940 -179.213300 -0.000000 -4.829600 6.920159 -1.753761 9.525186 0.555157 -1.530738 -1.102529 -6.467241 -1.624217 -0.361340 10.733025 9.209488 6.809128 -4.448279 -0.386621 3.463565 0.000000 0.000000 0.000000 -7.333822 -7.841640 1.002669 -65.668696 -35.786054 18.165373 -1.818215 -57.896252 -0.055840 10.805425 -6.345523 -0.654409 -0.217126 0.444493 -0.000000 0.000000 0.000000 0.000000 0.000000 0.000000 0.000000 20.863550 5.090602 2.042208 50.358596 10.516613 -20.149809 2.909284 8.670258 0.001443 -4.629368 5.665161 -0.237351 0.089305 -0.095510 -0.000000 0.000000 0.000000 0.000000 0.000000 0.000000 0.000000 
1.415775 16.617757 1.258732 26.580879 78.887899 47.404335 -11.852238 1.542946 -4.430302 -0.669066 9.340876 -19.530856 0.070848 3.470807 53.688184 2.051442 9.168385 20.077938 3.274600 -0.000000 -48.165700 8.301625 1.342469 -1.972942 13.777069 2.017957 -44.135857 2.172249 -2.132869 36.649400 -2.112228 -4.769329 -18.113932 -179.059200 0.000000 -4.923300 6.721158 -1.748638 9.676470 0.510270 -1.513747 -1.057134 -6.487846 -1.608758 -0.300882 11.289615 9.567075 7.026123 -4.418311 -0.385520 3.513277 0.000000 0.000000 0.000000 -7.144649 -7.869475 0.988481 -65.830278 -35.214568 17.058545 -1.891790 -55.196535 -0.057954 11.707610 -6.458269 -0.718094 -0.217661 0.422799 0.000000 0.000000 0.000000 0.000000 0.000000 0.000000 0.000000 21.239061 5.259656 1.914702 50.741839 11.778638 -21.754966 2.780126 7.820005 -0.000340 -5.663736 5.812408 -0.296969 0.088046 -0.096950 -0.000000 0.000000 0.000000 0.000000 0.000000 0.000000 0.000000 
1.567093 16.632770 1.358533 25.774118 78.589960 46.514156 -11.777844 1.403820 -4.460049 -0.765889 9.028187 -20.521941 0.172039 3.550790 55.230846 2.233460 11.218199 19.311202 4.086000 0.000001 -45.304300 8.323357 1.293535 -2.013998 13.965444 2.255016 -43.020467 2.176827 -2.064161 36.402476 -2.197830 -4.971727 -18.783734 -178.934000 -0.000000 -4.979800 6.477975 -1.732260 9.746837 0.458679 -1.492790 -1.025378 -6.502171 -1.588625 -0.225727 11.833897 9.881335 7.216008 -4.375782 -0.384067 3.556801 0.000000 0.000000 0.000000 -6.996427 -7.864895 1.000939 -65.906994 -34.661689 16.041347 -1.970470 -52.357721 -0.058761 12.511375 -6.501236 -0.769181 -0.216833 0.399317 -0.000000 0.000000 0.000000 0.000000 0.000000 0.000000 0.000000 21.533898 5.433668 1.775102 51.312838 12.973594 -23.141982 2.648223 7.264256 -0.002156 -6.681520 5.980442 -0.359584 0.086264 -0.098302 -0.000000 0.000000 0.000000 0.000000 0.000000 0.000000 0.000000 
1.719714 16.652337 1.459966 25.045802 78.245650 45.762845 -11.695955 1.270307 -4.463960 -0.935334 8.684142 -21.571472 0.260622 3.613636 56.562775 2.403328 13.109234 18.379695 4.773100 -0.000000 -42.787600 8.348325 1.238197 -2.012093 14.106277 2.541018 -41.916470 2.180389 -1.979539 35.960514 -2.263771 -5.138673 -19.240341 -178.840700 -0.000000 -5.093601 6.205657 -1.704899 9.740765 0.402706 -1.467638 -1.004543 -6.511717 -1.563398 -0.131180 12.343064 10.093815 7.356774 -4.328570 -0.382471 3.588009 0.000000 0.000000 0.000000 -6.895381 -7.827079 1.035916 -65.889682 -34.130244 15.124801 -2.055715 -49.411022 -0.058180 13.167070 -6.461590 -0.801469 -0.214303 0.374449 -0.000000 0.000000 0.000000 0.000000 0.000000 0.000000 0.000000 21.760993 5.547281 1.626052 52.049591 14.210014 -24.259399 2.522523 6.904459 -0.003832 -7.622575 6.217609 -0.425795 0.084112 -0.099719 -0.000000 0.000000 0.000000 0.000000 0.000000 0.000000 0.000000 
1.873370 16.676467 1.562543 24.356695 77.858126 45.110319 -11.607655 1.143037 -4.443022 -1.157522 8.314757 -22.671485 0.334971 3.659745 57.673942 2.553626 14.761793 17.311187 5.296100 -0.000000 -40.597300 8.374417 1.177657 -1.971734 14.209390 2.874783 -40.834693 2.184960 -1.881610 35.355150 -2.308288 -5.252492 -19.518917 -178.779000 -0.000000 -5.323300 5.917521 -1.666123 9.665909 0.344882 -1.436877 -0.996952 -6.516008 -1.532195 -0.031653 12.810904 10.240101 7.457201 -4.276633 -0.380794 3.609534 0.000000 0.000000 0.000000 -6.845370 -7.776075 1.097410 -65.771262 -33.592650 14.308418 -2.148848 -46.392551 -0.056263 13.626026 -6.328411 -0.809757 -0.209843 0.348795 0.000000 0.000000 0.000000 0.000000 0.000000 0.000000 0.000000 21.920647 5.641621 1.470490 52.953223 15.409006 -25.045883 2.407070 6.798800 -0.005279 -8.416189 6.494269 -0.490403 0.081504 -0.101032 -0.000000 0.000000 0.000000 0.000000 0.000000 0.000000 0.000000 
2.027679 16.705120 1.665865 23.677840 77.430776 44.523034 -11.513560 1.022172 -4.399576 -1.414747 7.924978 -23.810638 0.393715 3.689939 58.558138 2.678253 16.122424 16.131173 5.633800 0.000000 -38.691000 8.399847 1.113434 -1.899582 14.284962 3.250192 -39.777365 2.192625 -1.772259 34.612322 -2.332044 -5.304708 -19.660015 -178.745299 -0.000000 -5.690800 5.623558 -1.616584 9.533831 0.286955 -1.399815 -1.002178 -6.514868 -1.494593 0.064884 13.227793 10.326484 7.517874 -4.222342 -0.379124 3.621593 0.000000 0.000000 0.000000 -6.843120 -7.726698 1.184270 -65.553619 -33.028094 13.594420 -2.250625 -43.339847 -0.053155 13.846749 -6.095787 -0.790545 -0.203427 0.322954 0.000000 0.000000 0.000000 0.000000 0.000000 0.000000 0.000000 22.019363 5.721977 1.311673 54.009155 16.564743 -25.474200 2.305980 6.923125 -0.006398 -9.004632 6.808103 -0.549405 0.078479 -0.102254 -0.000000 0.000000 0.000000 0.000000 0.000000 0.000000 0.000000 
